# xmcd CD database file
#
# Track frame offsets:
#	150
#	24119
#	46691
#	63680
#	83515
#	99205
#
# Disc length: 1540 seconds
#
# Revision: 1
# Processed by: cddbd v1.5.1PL2 Copyright (c) Steve Scherf et al.
# Submitted via: CDex 1.51
#
DISCID=35060206
DTITLE=Norah Jones - Feels Like Home
DYEAR=2004
DGENRE=Blues
TTITLE0=In The Morning
TTITLE1=She
TTITLE2=Long Way Home
TTITLE3=Creepin´ In
TTITLE4=Sunrise
TTITLE5=What Am I To You
EXTD=YEAR: 2004
EXTT0=
EXTT1=
EXTT2=
EXTT3=
EXTT4=
EXTT5=
PLAYORDER=
